<svg xmlns="http://www.w3.org/2000/svg" viewBox="0 0 40.33 40.23"><defs><style>.cls-1{fill:#fff;fill-rule:evenodd;}</style></defs><title>fb</title><g id="Layer_2" data-name="Layer 2"><g id="Layer_1-2" data-name="Layer 1"><path class="cls-1" d="M23.15,40.23c-.17-5-.06-10.26-.09-15.39a38.94,38.94,0,0,1,4.09-.09c.32-1.56.39-3.38.61-5-2-.06-3.1,0-4.61-.09,0-1.69-.4-3.15.17-4.09.71-1.15,2.72-.35,4.35-.6.2-1.54,0-3.45.09-5.13-3.86,0-7.19-.31-9.13,1.47S17,16.1,16.8,19.62H13.93c-.2,1.54,0,3.45-.08,5.13h3V40.23A20.05,20.05,0,0,1,0,19.45,19.69,19.69,0,0,1,5.67,6.32,19.2,19.2,0,0,1,18.54.06,20.09,20.09,0,0,1,40.33,20.12c-.08,3.44-1.06,9.59-5.61,14.2A19.58,19.58,0,0,1,23.15,40.23Z"/></g></g></svg>