<svg xmlns="http://www.w3.org/2000/svg" viewBox="0 0 39.74 18.99"><defs><style>.cls-1{fill:#fff;}</style></defs><title>ra</title><g id="Layer_2" data-name="Layer 2"><g id="Layer_1-2" data-name="Layer 1"><path class="cls-1" d="M0,11.91V0H11.89a9.11,9.11,0,0,1,6.49,2.47c1.58,1.47,3,3.08,4.52,4.59l-3.35,3.36C19,9.88,18.47,9.3,17.91,8.74c-.86-.87-1.72-1.74-2.6-2.59A4.56,4.56,0,0,0,12.16,4.8c-2.35,0-4.71,0-7.07,0l-.24,0V7.11h.64c2,0,3.91,0,5.87,0a3.62,3.62,0,0,1,2.8,1.15c1.7,1.73,3.44,3.43,5.14,5.16a2.52,2.52,0,0,0,1.86.81h12l.13,0L24.64,5.62l3.53-3.56c.73.75,1.49,1.54,2.27,2.32l8.69,8.7a1.38,1.38,0,0,1,0,2.29c-.93,1-1.88,1.87-2.81,2.82a2.52,2.52,0,0,1-2,.8H19.54a3.3,3.3,0,0,1-2.48-1c-1.72-1.73-3.46-3.44-5.18-5.18a2.74,2.74,0,0,0-2.1-.87c-3,0-6.07,0-9.11,0Z"/></g></g></svg>