<svg xmlns="http://www.w3.org/2000/svg" viewBox="0 0 40.07 17.87"><defs><style>.cls-1{fill:#fff;}</style></defs><title>souncloud</title><g id="Layer_2" data-name="Layer 2"><g id="Layer_1-2" data-name="Layer 1"><path class="cls-1" d="M19.92,1.06s1.43-1.15,5-1a8.59,8.59,0,0,1,7.26,4.58,8.29,8.29,0,0,1,.58,3.63s3.24-1,4.48,0S40,9.75,40.07,13.86s-4.68,4-4.68,4H19.92Z"/><rect class="cls-1" x="18.34" y="1.39" width="0.86" height="16.48"/><rect class="cls-1" x="16.81" y="1.9" width="0.86" height="15.97"/><rect class="cls-1" x="15.28" y="3.88" width="0.86" height="13.99"/><rect class="cls-1" x="13.75" y="3.62" width="0.86" height="14.25"/><rect class="cls-1" x="12.23" y="3.62" width="0.86" height="14.25"/><rect class="cls-1" x="10.7" y="3.62" width="0.86" height="14.25"/><rect class="cls-1" x="9.17" y="4.47" width="0.86" height="13.4"/><rect class="cls-1" x="7.64" y="6.66" width="0.86" height="11.21"/><rect class="cls-1" x="6.11" y="8.43" width="0.77" height="9.43"/><rect class="cls-1" x="4.58" y="8.93" width="0.86" height="8.93"/><rect class="cls-1" x="3.06" y="8.93" width="0.86" height="8.93"/><rect class="cls-1" x="1.53" y="9.63" width="0.86" height="7.54"/><rect class="cls-1" y="11.17" width="0.86" height="3.89"/></g></g></svg>